<!-- Generated by IcoMoon.io -->
<svg version="1.1" xmlns="http://www.w3.org/2000/svg" width="100%" height="100%" fill-opacity="0.3" viewBox="0 0 640 640">
<g id="icomoon-ignore">
</g>
<path fill="#000" d="M214.071 510.44c0 2.579-2.968 4.646-6.709 4.646-4.259 0.386-7.225-1.676-7.225-4.646 0-2.579 2.968-4.646 6.709-4.646 3.869-0.386 7.225 1.676 7.225 4.646zM173.942 504.635c-0.904 2.579 1.676 5.549 5.549 6.321 3.356 1.29 7.225 0 8.001-2.579s-1.676-5.549-5.549-6.709c-3.356-0.904-7.097 0.386-8.001 2.968zM230.972 502.441c-3.742 0.904-6.321 3.356-5.936 6.321 0.386 2.579 3.742 4.259 7.611 3.356 3.742-0.904 6.321-3.356 5.936-5.936-0.386-2.452-3.869-4.127-7.611-3.742zM315.873 8.013c-178.959 0-315.858 135.864-315.858 314.824 0 143.089 90.059 265.536 218.699 308.631 16.516 2.967 22.321-7.225 22.321-15.612 0-8.001-0.386-52.126-0.386-79.223 0 0-90.317 19.354-109.285-38.449 0 0-14.709-37.546-35.869-47.222 0 0-29.549-20.258 2.066-19.872 0 0 32.128 2.579 49.804 33.29 28.257 49.804 75.609 35.483 94.059 26.965 2.968-20.644 11.353-34.966 20.644-43.481-72.126-8.001-144.896-18.45-144.896-142.575 0-35.483 9.804-53.289 30.451-75.996-3.356-8.387-14.322-42.968 3.356-87.611 26.965-8.387 89.028 34.838 89.028 34.838 25.806-7.225 53.546-10.967 81.029-10.967s55.224 3.742 81.029 10.967c0 0 62.063-43.353 89.027-34.838 17.678 44.771 6.709 79.223 3.356 87.611 20.644 22.837 33.29 40.643 33.29 75.996 0 124.511-75.996 134.447-148.122 142.575 11.87 10.194 21.933 29.549 21.933 59.869 0 43.481-0.386 97.287-0.386 107.865 0 8.387 5.936 18.58 22.321 15.613 129.026-42.836 216.506-165.282 216.506-308.373 0-178.959-145.155-314.824-324.114-314.824zM125.429 453.024c-1.676 1.29-1.29 4.259 0.904 6.709 2.066 2.066 5.032 2.968 6.709 1.29 1.676-1.29 1.29-4.259-0.904-6.709-2.066-2.066-5.032-2.968-6.709-1.29zM111.493 442.574c-0.904 1.676 0.386 3.742 2.967 5.032 2.066 1.29 4.646 0.904 5.549-0.904 0.904-1.676-0.386-3.742-2.967-5.032-2.579-0.774-4.646-0.386-5.549 0.904zM153.298 488.507c-2.066 1.676-1.29 5.549 1.676 8.001 2.968 2.967 6.709 3.356 8.387 1.29 1.676-1.676 0.904-5.549-1.676-8.001-2.839-2.968-6.709-3.356-8.387-1.29zM138.59 469.539c-2.066 1.29-2.066 4.646 0 7.611s5.549 4.259 7.225 2.968c2.066-1.676 2.066-5.032 0-8.001-1.807-2.968-5.161-4.259-7.225-2.579z"></path>
</svg>
