<!-- Generated by IcoMoon.io -->
<svg version="1.1" xmlns="http://www.w3.org/2000/svg" width="100%" height="100%" fill-opacity="0.3" viewBox="0 0 463 1024">
<g id="icomoon-ignore">
</g>
<path fill="#da4648" d="M229.461 806.338c-59.731 0-105.885-8.973-128.079-14.32-15.177-3.657-27.365-7.441-36.623-11.328l29.601 50.573 11.579 158.016c0 17.715 56.275 32.075 125.693 32.075s125.693-14.36 125.693-32.075l9.168-159.736 28.008-49.001c-9.298 3.94-21.594 7.774-36.962 11.476-22.195 5.348-68.349 14.32-128.077 14.32zM395.46 292.147c-43.839 6.123-102.022 9.496-163.829 9.496s-119.991-3.374-163.829-9.496c-21.716-3.032-38.896-6.61-51.065-10.626-2.903-0.96-7.822-2.598-12.555-5.207l27.161 249.975c1.262-4.305 2.667-8.605 4.226-12.889 3.188-8.779 6.877-17.363 11.063-25.748 4.189-8.383 8.748-16.307 13.677-23.772 4.927-7.462 10.174-14.333 15.733-20.612 5.562-6.276 11.267-11.674 17.125-16.199 5.856-4.519 11.767-8.054 17.733-10.6 5.969-2.545 11.881-3.821 17.736-3.821 6.745 0 13.27 1.844 19.572 5.533 6.3 3.686 12.19 9.658 17.678 17.911 1.259 1.844 2.059 3.71 2.389 5.596 0.336 1.889 0.5 3.667 0.5 5.334 0 3.95-0.945 7.070-2.834 9.351-1.889 2.283-4.133 3.424-6.726 3.424-2.376 0-4.58-1.252-6.618-3.752-2.040-2.503-4.318-6.080-6.84-10.735-2.373-4.215-4.985-7.263-7.837-9.152-2.855-1.887-5.948-2.831-9.285-2.831-5.189 0-10.73 2.151-16.622 6.454-5.895 4.3-11.732 9.986-17.511 17.053-5.784 7.070-11.325 15.146-16.625 24.235-5.3 9.086-9.991 18.392-14.069 27.918-4.077 9.531-7.316 18.927-9.727 28.188s-3.614 17.58-3.614 24.954c0 2.461 0.169 4.988 0.5 7.573 0.336 2.593 0.963 4.94 1.892 7.049 0.923 2.109 2.186 3.839 3.778 5.197 1.596 1.365 3.614 2.043 6.059 2.043 2.744 0 5.856-0.921 9.343-2.765 3.482-1.839 7.097-4.257 10.838-7.239 3.744-2.987 7.507-6.366 11.288-10.145 3.784-3.773 7.303-7.591 10.563-11.457 3.26-3.861 6.152-7.573 8.671-11.126 2.522-3.556 4.411-6.652 5.673-9.287l10.341-30.95c1.259-3.334 2.908-5.705 4.948-7.11 2.037-1.405 4.133-2.109 6.284-2.109 1.035 0 2.072 0.177 3.112 0.527 1.040 0.352 1.963 0.902 2.781 1.646 0.815 0.749 1.463 1.712 1.945 2.9 0.482 1.183 0.722 2.567 0.722 4.146 0 4.215-0.37 8.163-1.111 11.854s-1.685 7.287-2.837 10.801c-1.148 3.509-2.429 7.044-3.837 10.6s-2.781 7.266-4.112 11.132c-0.296 0.439-0.833 1.818-1.614 4.144-0.778 2.331-1.72 5.252-2.834 8.761-1.111 3.514-2.318 7.441-3.614 11.788-1.299 4.347-2.63 8.779-4.001 13.301-1.373 4.522-2.688 8.957-3.948 13.304-1.262 4.345-2.395 8.274-3.392 11.788-1 3.509-1.834 6.448-2.503 8.822-0.667 2.371-1.074 3.773-1.222 4.218-0.37 1.4-0.966 2.961-1.778 4.67-0.815 1.712-1.778 3.339-2.892 4.874-1.111 1.535-2.334 2.813-3.67 3.818-1.334 1.008-2.704 1.516-4.115 1.516-2.371 0-4.096-0.791-5.168-2.368-1.077-1.582-1.611-4.48-1.611-8.692v-1.844c0-0.617 0.034-1.278 0.108-1.974 0.071-1.408 0.63-4.043 1.67-7.909 1.037-3.861 2.278-8.226 3.726-13.1 1.445-4.874 3.003-9.922 4.67-15.148 1.664-5.223 3.167-9.896 4.503-14.024-3.935 4.392-8.192 8.758-12.788 13.106-4.599 4.345-9.306 8.253-14.122 11.719-4.821 3.469-9.676 6.3-14.566 8.496-4.892 2.194-9.6 3.294-14.122 3.294-5.189 0-9.655-1.143-13.402-3.427-0.675-0.415-1.312-0.878-1.947-1.339l15.114 158.463c3.935 9.862 78.007 34.091 175.67 34.091 97.709 0 171.81-24.253 175.676-34.107l21.71-188.4c-1.797 1.648-3.546 3.26-5.218 4.821-6.229 5.792-12.105 10.774-17.628 14.945-5.52 4.17-10.915 7.401-16.178 9.679-5.266 2.286-10.899 3.427-16.903 3.427-5.633 0-9.991-1.23-13.066-3.689-3.075-2.455-4.615-5.834-4.615-10.139v-0.987c0-0.307 0.037-0.683 0.114-1.122 0.294-2.63 1.447-5.665 3.448-9.086 2-3.427 4.408-6.98 7.224-10.666 2.818-3.689 5.819-7.422 9.007-11.198 3.188-3.773 6.136-7.351 8.843-10.735 2.704-3.374 4.945-6.469 6.723-9.282 1.783-2.81 2.672-5.091 2.672-6.848 0-1.053-0.373-1.887-1.111-2.506-0.744-0.609-1.969-0.921-3.67-0.921-2.966 0-6.025 0.77-9.171 2.305-3.154 1.535-6.271 3.604-9.346 6.192-3.075 2.59-6.078 5.557-9.007 8.891-2.924 3.337-5.668 6.805-8.226 10.401-2.559 3.604-4.89 7.226-7.004 10.87s-3.911 7.001-5.395 10.071c-0.445 0.968-1.074 2.331-1.892 4.083-0.815 1.757-1.704 3.736-2.667 5.93-0.966 2.196-1.984 4.459-3.059 6.779-1.074 2.331-2.056 4.527-2.945 6.589-0.889 2.064-1.685 3.903-2.387 5.53-0.709 1.622-1.209 2.744-1.506 3.36-0.37 0.789-0.982 2.278-1.834 4.474s-1.836 4.765-2.945 7.705c-1.111 2.94-2.281 6.036-3.506 9.287-1.217 3.244-2.371 6.321-3.445 9.219-1.077 2.895-2.022 5.443-2.834 7.639-0.815 2.191-1.339 3.686-1.561 4.477-0.738 2.283-1.611 4.429-2.609 6.456-1.003 2.016-2.149 3.794-3.448 5.334-1.297 1.535-2.778 2.762-4.448 3.683-1.67 0.926-3.54 1.384-5.612 1.384-2.672 0-4.874-0.64-6.62-1.91-1.738-1.273-2.612-3.712-2.612-7.308 0-1.757 0.222-3.556 0.667-5.398 0.445-1.844 1.003-3.67 1.67-5.467 0.667-1.805 1.355-3.556 2.059-5.268 0.701-1.715 1.352-3.358 1.942-4.94 4.006-8.779 8.084-17.58 12.232-26.407 4.149-8.822 8.134-17.556 11.955-26.206 0.794-1.805 1.524-3.572 2.299-5.366-0.233 0.228-0.46 0.466-0.688 0.688-4.821 4.657-9.618 8.758-14.4 12.314-4.784 3.556-9.528 6.387-14.23 8.496-4.71 2.104-9.287 3.159-13.738 3.159-3.038 0-5.575-0.482-7.613-1.447-2.040-0.968-3.667-2.286-4.892-3.95-1.225-1.667-2.098-3.644-2.617-5.927-0.175-0.781-0.283-1.596-0.397-2.408-1.302 1.013-2.614 2-3.937 2.937-4.596 3.244-9.118 5.858-13.566 7.832-4.445 1.977-8.451 2.964-12.005 2.964-3.562 0-6.451-1.185-8.679-3.556-2.223-2.368-3.331-6.409-3.331-12.113 0-4.043 0.593-8.74 1.775-14.093-1.926 3.424-4.334 6.893-7.224 10.401-2.895 3.514-6.192 6.718-9.896 9.618-3.712 2.895-7.861 5.244-12.455 7.044-4.599 1.799-9.602 2.699-15.011 2.699-2.448 0-4.8-0.307-7.062-0.921-2.262-0.617-4.244-1.67-5.948-3.162-1.707-1.49-3.075-3.49-4.115-5.991-1.037-2.5-1.556-5.644-1.556-9.417 0-0.087 0.148-1.426 0.445-4.019 0.296-2.59 1.241-6.673 2.837-12.248 1.593-5.572 4.059-12.796 7.39-21.665 3.339-8.867 8.046-19.623 14.124-32.263 1.556-3.339 3.355-5.731 5.39-7.179 2.043-1.45 4.244-2.175 6.615-2.175 1.040 0 2.114 0.156 3.225 0.46 1.117 0.31 2.151 0.791 3.117 1.45 0.96 0.659 1.741 1.495 2.336 2.503 0.587 1.008 0.889 2.17 0.889 3.487 0 0.878-0.114 1.717-0.336 2.5-0.373 1.5-1.17 3.448-2.387 5.861-1.225 2.418-2.654 5.184-4.287 8.3-1.627 3.117-3.352 6.475-5.168 10.079-1.818 3.596-3.503 7.327-5.059 11.193s-2.892 7.792-4.003 11.788c-1.111 3.995-1.744 7.882-1.889 11.656 0 1.58 0.368 3.027 1.111 4.345 0.741 1.318 1.966 1.974 3.67 1.974 4.816 0 9.412-1.582 13.788-4.739 4.371-3.162 8.409-7.091 12.119-11.788 3.707-4.697 7.060-9.748 10.063-15.148s5.504-10.335 7.504-14.815c1.41-2.982 2.651-6.192 3.726-9.613 1.074-3.427 2.244-6.583 3.503-9.483 1.262-2.9 2.704-5.313 4.337-7.245 1.627-1.929 3.67-2.897 6.112-2.897 2.672 0 4.781 1.011 6.342 3.030 1.556 2.022 2.331 4.435 2.331 7.242 0 1.58-0.497 3.757-1.5 6.522s-2.262 5.927-3.781 9.483c-1.521 3.556-3.17 7.353-4.945 11.388-1.778 4.043-3.432 8.144-4.945 12.317-1.527 4.17-2.781 8.253-3.784 12.248-1.003 3.993-1.5 7.705-1.5 11.126 0 3.162 1.63 4.744 4.89 4.744 2.299 0 5.152-0.791 8.562-2.373s6.988-3.797 10.73-6.652c0.934-0.712 1.876-1.455 2.81-2.236 1.045-4.31 2.27-8.295 3.696-11.918 2.593-6.853 5.226-13.653 7.896-20.414 2.667-6.761 5.112-12.952 7.34-18.572l33.689-84.947c1.334-3.424 3.133-5.84 5.39-7.245 2.265-1.402 4.543-2.106 6.843-2.106 2.294 0 4.387 0.746 6.279 2.239 1.892 1.495 2.839 3.908 2.839 7.245 0 1.58-0.318 3.249-0.947 5.004-0.63 1.757-1.426 3.644-2.392 5.662-1.85 4.13-4.056 9.176-6.615 15.146-2.559 5.972-5.303 12.471-8.229 19.493-2.929 7.025-5.932 14.333-9.007 21.927-3.075 7.597-6.078 14.992-9.007 22.192-2.924 7.202-5.67 14.024-8.229 20.48-2.556 6.454-4.757 12.053-6.615 16.791-0.815 2.019-1.611 4.371-2.387 7.049-0.781 2.675-1.167 5.070-1.167 7.179 0 1.312 0.222 2.366 0.667 3.157s1.297 1.188 2.556 1.188c1.556 0 3.501-0.548 5.837-1.648 2.334-1.095 4.853-2.548 7.56-4.347 2.709-1.797 5.525-3.861 8.449-6.189 2.932-2.326 5.84-4.739 8.729-7.242 2.895-2.506 5.654-5.006 8.285-7.509 2.63-2.5 4.988-4.805 7.065-6.914 0.487-0.505 1.069-0.863 1.709-1.13 1.252-3.739 2.395-7.401 3.403-10.984 0.593-1.582 1.41-3.818 2.448-6.718 1.035-2.9 2.223-5.752 3.556-8.562 1.334-2.807 2.839-5.247 4.501-7.308 1.67-2.061 3.469-3.096 5.395-3.096 2.966 0 5.117 0.683 6.451 2.040 1.334 1.365 2 3.36 2 5.996 0 0.527-0.074 1.36-0.222 2.5-0.151 1.143-0.331 2.352-0.553 3.625-0.222 1.27-0.466 2.479-0.725 3.622-0.262 1.14-0.5 1.974-0.722 2.5 2.739-2.987 5.705-5.948 8.893-8.888 3.188-2.942 6.485-5.604 9.896-7.97 3.413-2.373 6.895-4.3 10.457-5.8 3.554-1.487 7.115-2.236 10.671-2.236 2.445 0 4.874 0.352 7.282 1.056 2.408 0.701 4.562 1.733 6.448 3.093 1.892 1.365 3.432 3.075 4.615 5.139 1.185 2.061 1.778 4.453 1.778 7.176 0 3.604-0.905 7.443-2.723 11.526-1.815 4.083-4.093 8.187-6.837 12.309-2.744 4.13-5.71 8.144-8.893 12.053-3.188 3.908-6.17 7.462-8.951 10.666-2.781 3.21-5.117 5.927-7.009 8.166-1.884 2.244-2.874 3.757-2.945 4.548 0 1.053 0.336 1.908 1.003 2.569 0.667 0.656 1.778 0.987 3.334 0.987 1.259 0 3.117-0.704 5.559-2.109 2.445-1.405 5.877-3.839 10.285-7.308s10.010-8.123 16.791-13.963c4.652-4.001 10.097-8.771 16.233-14.198l29.408-272.35c-4.736 2.614-9.663 4.255-12.568 5.215-12.166 4.017-29.347 7.594-51.065 10.626zM231.456 227.529c-127.136 0-230.202 14.215-230.202 31.752s103.065 31.752 230.202 31.752c127.136 0 230.202-14.215 230.202-31.752s-103.065-31.752-230.202-31.752zM323.372 268.561c0 4.115-12.248 7.451-27.36 7.451-15.109 0-27.357-3.337-27.357-7.451 0-4.117 12.248-7.454 27.357-7.454 15.111 0 27.36 3.337 27.36 7.454z"></path>
<path fill="#da4648" d="M274.196 265.266c-0.136 0.216-0.206 0.437-0.206 0.662 0 2.665 9.862 4.821 22.023 4.821 12.164 0 22.023-2.156 22.023-4.821l28.765-116.63 114.394-120.776c0.037-0.037 0.073-0.075 0.108-0.114 2.421-2.739-2.493-11.214-10.645-18.482s-16.956-9.729-19.691-6.962c-0.020 0.021-0.040 0.042-0.060 0.063l-122.053 128.432-34.658 133.808z"></path>
</svg>
