<!-- Generated by IcoMoon.io -->
<svg version="1.1" xmlns="http://www.w3.org/2000/svg" width="100%" height="100%" fill-opacity="0.3" viewBox="0 0 640 640">
<g id="icomoon-ignore">
</g>
<path fill="#000" d="M252.8 84.8h-112v297.472c0 73.6-25.216 94.144-69.184 94.144-20.608 0-39.104-3.52-53.568-8.512l-11.648 87.168c20.608 7.104 52.16 11.328 76.864 11.328 100.864 0 169.536-47.424 169.536-183.36v-298.24z"></path>
<path fill="#000" d="M497.024 73.6c-108.416 0-177.024 61.568-177.024 143.040 0 70.144 52.864 113.984 129.728 142.336 55.552 19.84 77.568 37.504 77.568 66.56 0 31.872-25.408 52.416-73.408 52.416-44.608 0-85.12-14.912-112.576-29.76v0l-21.312 88.448c26.112 14.912 74.816 29.76 127.616 29.76 126.976 0 185.984-67.968 185.984-148.032 0-67.968-37.76-111.872-119.36-143.040-60.416-24.064-85.76-37.504-85.76-67.968 0-24.064 21.952-46.016 67.264-46.016 44.608 0 75.264 14.976 93.12 24.192l26.752-89.6c-28.032-12.224-65.728-22.336-118.592-22.336v0z"></path>
</svg>
