<!-- Generated by IcoMoon.io -->
<svg version="1.1" xmlns="http://www.w3.org/2000/svg" width="100%" height="100%" fill-opacity="0.3" viewBox="0 0 572 1024">
<g id="icomoon-ignore">
</g>
<path fill="#000" d="M124.969 1019.424v0c-14.413 0-28.538-2.644-42.086-7.931-56.787-22.029-86.766-84.886-71.2-143.043l-0.577-0.294 3.747-9.987 288.548-763.682c4.324-11.162 2.306-38.184 0.288-53.164-0.577-3.525-0.577-6.756 0.288-9.987l0.288-0.587c0.288-0.587 0.288-1.175 0.577-1.762 4.612-12.336 18.737-18.505 41.798-18.505 27.673 0 66.011 8.812 105.215 24.085 32.862 12.924 62.841 29.079 83.884 45.233 24.79 19.092 34.591 36.128 29.114 50.814-0.288 0.587-0.577 1.175-0.865 1.762l-0.288 0.587c-1.441 2.937-3.459 5.287-6.053 7.343-12.683 11.455-31.42 30.841-34.591 39.653l-292.007 774.256-0.577-0.294c-20.466 39.946-60.535 65.5-105.503 65.5zM34.744 863.163l-0.865 2.056c-18.449 50.52 6.63 107.503 56.211 126.889 11.242 4.406 22.773 6.462 34.591 6.462 40.068 0 75.524-24.379 90.225-62.563l1.153-2.644 287.107-760.451c6.053-16.449 34.591-42.59 40.356-47.877l0.577-0.587c0.577-0.294 0.865-0.587 0.865-0.881l0.288-0.294c0.288-2.056-2.306-11.162-22.484-27.023-19.313-14.98-47.275-29.96-78.695-42.296-36.321-14.392-73.218-22.91-98.008-22.91-16.431 0-21.908 3.525-22.773 5.287v0.294c0 0.294 0 0.587 0 1.175v0.294c0.577 4.406 6.053 43.471-1.441 63.738l-287.107 761.332z"></path>
<path fill="#D00000" d="M404.005 379.4c0 0-39.78 46.702-76.101 63.444s-63.129 12.336-95.702 31.722c-32.573 19.386-49.004 46.408-49.004 46.408l-132.599 351.587c-14.413 39.653 6.918 86.061 46.41 101.628s84.172-4.993 99.45-44.352v0l207.547-550.438zM270.54 582.363c6.342-2.937 13.836 0 16.431 6.462 2.883 6.462 0 14.099-6.342 16.742-6.342 2.937-13.836 0-16.431-6.462-3.171-6.462 0-14.099 6.342-16.742zM217.212 524.5c4.324-1.762 9.224 0 10.954 4.406s0 9.399-4.324 11.162c-4.324 1.762-9.224 0-10.954-4.406s0.288-9.399 4.324-11.162zM158.696 723.351c-6.342 2.937-13.836 0-16.431-6.462-2.883-6.462 0-14.099 6.342-16.742 6.342-2.937 13.836 0 16.431 6.462 3.171 6.462 0.288 13.805-6.342 16.742zM170.514 677.236c-5.189-12.043 0-26.141 11.819-31.722 11.819-5.287 25.655 0 31.132 12.043 5.189 12.043 0 26.141-11.819 31.722-12.107 5.287-25.943 0-31.132-12.043zM200.493 799.131c4.324-1.762 9.224 0 10.954 4.406s0 9.399-4.324 11.162c-4.324 1.762-9.224 0-10.954-4.406-1.73-4.112 0-9.105 4.324-11.162z"></path>
<path fill="#000" d="M438.526 67.804c41.306 16.19 71.409 38.274 67.237 49.326s-41.040 6.887-82.345-9.303c-41.306-16.19-71.409-38.274-67.237-49.326s41.040-6.887 82.345 9.303z"></path>
</svg>
