<!-- Generated by IcoMoon.io -->
<svg version="1.1" xmlns="http://www.w3.org/2000/svg" width="100%" height="100%" fill-opacity="0.3" viewBox="0 0 640 640">
<g id="icomoon-ignore">
</g>
<path fill="#007D7D" d="M437.467 151.36c-3.067 0-5.147 0.373-7.307 0.88v0.347h0.373c1.44 2.773 3.893 4.8 5.707 7.28 1.44 2.853 2.667 5.707 4.107 8.533l0.373-0.4c2.507-1.76 3.733-4.587 3.733-8.88-1.067-1.253-1.227-2.507-2.133-3.733-1.067-1.787-3.36-2.667-4.8-4.080zM153.867 503.2h-24.72c-0.8-41.653-3.28-80.8-7.2-117.6h-0.213l-37.6 117.6h-18.8l-37.333-117.6h-0.267c-2.747 35.28-4.48 74.48-5.2 117.6h-22.533c1.467-52.427 5.12-101.6 10.933-147.467h30.667l35.6 108.373h0.213l35.92-108.373h29.2c6.453 53.733 10.24 102.933 11.413 147.467zM260.987 394.4c-10.080 54.533-23.36 94.213-39.787 118.933-12.853 19.093-26.933 28.613-42.213 28.613-4.080 0-9.067-1.227-15.093-3.68v-13.173c2.933 0.453 6.4 0.693 10.293 0.693 7.147 0 12.88-2 17.253-5.92 5.253-4.8 7.867-10.187 7.867-16.133 0-4.133-2.053-12.533-6.133-25.173l-27.040-84.16h24.267l19.387 62.933c4.373 14.293 6.213 24.267 5.467 29.947 10.667-28.373 18.080-59.387 22.267-92.88h23.467zM589.653 503.2h-70.133v-147.467h23.6v129.333h46.533zM501.12 506.8l-27.093-13.333c2.4-2.027 4.72-4.213 6.8-6.667 11.547-13.493 17.28-33.547 17.28-60.080 0-48.8-19.147-73.227-57.467-73.227-18.773 0-33.44 6.187-44 18.587-11.467 13.547-17.227 33.493-17.227 59.867 0 25.92 5.067 44.96 15.307 57.067 9.333 10.933 23.387 16.4 42.213 16.4 7.040 0 13.493-0.88 19.333-2.613l35.333 20.587 9.6-16.587zM413.333 473.68c-6-9.6-8.987-25.067-8.987-46.293 0-37.147 11.307-55.733 33.867-55.733 11.813 0 20.533 4.453 26.053 13.333 5.973 9.653 8.96 24.96 8.96 45.947 0 37.44-11.307 56.213-33.867 56.213-11.867 0-20.533-4.453-26.080-13.333zM369.12 462.347c0 12.533-4.587 22.827-13.76 30.827s-21.413 12-36.907 12c-14.48 0-28.373-4.587-41.947-13.733l6.32-12.693c11.68 5.867 22.213 8.747 31.733 8.747 8.853 0 15.813-1.947 20.88-5.867 5.013-3.92 8-9.44 8-16.4 0-8.8-6.133-16.267-17.28-22.533-10.347-5.68-31.013-17.52-31.013-17.52-11.253-8.187-16.853-16.96-16.853-31.387 0-12 4.187-21.6 12.533-28.933 8.4-7.413 19.2-11.067 32.533-11.067 13.653 0 26.133 3.627 37.333 10.933l-5.68 12.693c-9.6-4.053-19.067-6.133-28.373-6.133-7.547 0-13.387 1.813-17.44 5.493-4.080 3.627-6.613 8.267-6.613 13.973 0 8.747 6.24 16.267 17.76 22.667 10.48 5.733 31.653 17.867 31.653 17.867 11.547 8.133 17.28 16.8 17.28 31.147z"></path>
<path fill="#007D7D" d="M619.307 306.293c-14.267-0.373-25.333 1.067-34.587 5.013-2.667 1.067-6.933 1.067-7.307 4.453 1.467 1.413 1.68 3.733 2.933 5.707 2.133 3.573 5.813 8.347 9.227 10.853 3.733 2.933 7.467 5.76 11.387 8.267 6.933 4.267 14.8 6.8 21.6 11.093 3.867 2.507 7.813 5.68 11.733 8.347 1.947 1.333 3.2 3.733 5.707 4.587v-0.533c-1.227-1.6-1.6-3.92-2.8-5.707-1.787-1.787-3.573-3.387-5.333-5.147-5.173-6.933-11.6-12.987-18.533-18-5.707-3.893-18.187-9.333-20.533-15.867l-0.347-0.373c3.893-0.347 8.533-1.76 12.267-2.827 6.053-1.6 11.6-1.253 17.867-2.827 2.827-0.72 5.68-1.6 8.533-2.507v-1.6c-3.2-3.2-5.6-7.547-8.907-10.533-9.067-7.867-19.12-15.52-29.44-21.947-5.6-3.573-12.693-5.867-18.587-8.907-2.133-1.067-5.707-1.6-6.933-3.387-3.2-3.893-5.067-9.067-7.333-13.707-5.12-9.813-10.133-20.667-14.587-31.013-3.2-6.987-5.147-13.947-9.067-20.347-18.4-30.32-38.32-48.693-68.96-66.667-6.587-3.733-14.48-5.333-22.827-7.307-4.453-0.213-8.907-0.533-13.333-0.72-2.933-1.253-5.76-4.64-8.267-6.267-10.133-6.4-36.373-20.267-43.84-1.92-4.8 11.573 7.12 22.987 11.253 28.853 3.067 4.080 6.933 8.747 9.067 13.333 1.253 3.093 1.6 6.267 2.853 9.493 2.827 7.84 5.52 16.587 9.253 23.92 1.947 3.733 4.080 7.653 6.587 11.013 1.44 1.947 3.893 2.853 4.453 6.053-2.507 3.627-2.667 8.907-4.107 13.333-6.4 20.187-3.893 45.147 5.173 60 2.853 4.427 9.653 14.24 18.747 10.48 8-3.2 6.24-13.333 8.533-22.267 0.533-2.133 0.187-3.547 1.28-4.987v0.4c2.507 5.013 5.013 9.787 7.307 14.8 5.493 8.747 15.093 17.813 23.12 23.867 4.267 3.2 7.653 8.747 12.987 10.72v-0.533h-0.4c-1.147-1.547-2.667-2.293-4.107-3.547-3.2-3.2-6.8-7.12-9.333-10.667-7.467-10.053-14.053-21.067-19.92-32.48-2.933-5.6-5.387-11.627-7.733-17.147-1.067-2.133-1.067-5.333-2.853-6.4-2.667 3.893-6.587 7.28-8.533 12.080-3.387 7.68-3.733 17.12-5.013 26.933-0.72 0.187-0.373 0-0.72 0.373-5.707-1.387-7.653-7.307-9.787-12.267-5.333-12.667-6.213-33.013-1.6-47.6 1.253-3.733 6.587-15.52 4.453-19.093-1.12-3.387-4.64-5.333-6.587-8.080-2.32-3.307-4.8-7.6-6.4-11.387-4.267-9.973-6.4-21.013-11.040-30.987-2.133-4.613-5.867-9.44-8.907-13.68-3.387-4.8-7.12-8.187-9.813-13.867-0.88-1.947-2.133-5.173-0.72-7.307 0.373-1.44 1.12-2 2.507-2.4 2.347-1.92 8.933 0.587 11.253 1.653 6.587 2.667 12.133 5.173 17.653 8.907 2.507 1.76 5.2 5.147 8.4 6.027h3.733c5.707 1.253 12.133 0.373 17.467 1.947 9.467 3.040 18 7.467 25.653 12.267 23.36 14.827 42.56 35.867 55.6 60.96 2.133 4.107 3.067 7.867 5.013 12.133 3.733 8.8 8.347 17.68 12.133 26.187 3.733 8.4 7.333 16.96 12.693 23.92 2.667 3.733 13.387 5.68 18.187 7.627 3.547 1.6 9.067 3.067 12.267 5.013 6.133 3.733 12.107 8 17.867 12.107 2.933 2.027 11.813 6.48 12.347 10.080z"></path>
</svg>
