<!-- Generated by IcoMoon.io -->
<svg version="1.1" xmlns="http://www.w3.org/2000/svg" width="100%" height="100%" fill-opacity="0.3" viewBox="0 0 981 640">
<g id="icomoon-ignore">
</g>
<path fill="#39beeb" d="M544.286 557.5c0 32.5-26.071 58.571-58.571 58.571s-58.929-26.071-58.929-58.571 26.429-58.929 58.929-58.929 58.571 26.429 58.571 58.929zM276.786 557.5c0 32.5-26.429 58.571-58.929 58.571s-58.571-26.071-58.571-58.571 26.071-58.929 58.571-58.929 58.929 26.429 58.929 58.929zM0 23.929c105.357 111.071 204.286 127.5 592.857 127.5s217.857 86.429-22.143 300.714c76.071-132.143 337.5-249.286-91.071-242.857-411.071 6.071-435.357-118.929-479.643-185.357z"></path>
</svg>
