<!-- Generated by IcoMoon.io -->
<svg version="1.1" xmlns="http://www.w3.org/2000/svg" width="100%" height="100%" fill-opacity="0.3" viewBox="0 0 640 640">
<g id="icomoon-ignore">
</g>
<path fill="#4F5B93" d="M320 380.772v243.091c-167.74-0.104-303.679-136.109-303.679-303.864 0-148.091 105.939-271.439 246.167-298.392l1.906-0.305 55.607 55.607h151.932c0 0 0 0 0.001 0 83.802 0 151.758 67.849 151.931 151.611v274.101c-0.172 66.996-54.524 121.241-121.545 121.241 0 0 0 0 0 0v0-60.773c33.564 0 60.773-27.209 60.773-60.772s-27.209-60.772-60.773-60.772v0h-121.546l-60.772-60.773zM487.125 289.614c25.172 0 45.579-20.407 45.579-45.579s-20.407-45.579-45.579-45.579v0c-25.173 0-45.579 20.407-45.579 45.579s20.407 45.579 45.579 45.579v0z"></path>
</svg>
